<svg xmlns="http://www.w3.org/2000/svg" viewBox="0 0 900 100" width="900" height="100">
  <defs>
    <linearGradient id="bg" x1="0" y1="0" x2="1" y2="1">
      <stop offset="0%"  stop-color="#04060f"/>
      <stop offset="100%" stop-color="#070b18"/>
    </linearGradient>
    <linearGradient id="waveTop" x1="0" y1="0" x2="1" y2="0">
      <stop offset="0%"   stop-color="#ff0080" stop-opacity=".7"/>
      <stop offset="50%"  stop-color="#b700ff" stop-opacity=".5"/>
      <stop offset="100%" stop-color="#00ffff" stop-opacity=".7"/>
    </linearGradient>
    <filter id="glow">
      <feGaussianBlur stdDeviation="2" result="b"/>
      <feMerge><feMergeNode in="b"/><feMergeNode in="SourceGraphic"/></feMerge>
    </filter>
    <style><![CDATA[
      text { font-family: 'Courier New', Consolas, monospace; }
      @keyframes floatA {
        0%,100%{transform:translateY(0);opacity:.2;}
        50%{transform:translateY(-5px);opacity:.35;}
      }
      @keyframes floatB {
        0%,100%{transform:translateY(0);opacity:.15;}
        50%{transform:translateY(-4px);opacity:.28;}
      }
      @keyframes floatC {
        0%,100%{transform:translateY(0);opacity:.18;}
        50%{transform:translateY(-6px);opacity:.30;}
      }
      .fa{animation:floatA 5s ease-in-out infinite;}
      .fb{animation:floatB 6s ease-in-out infinite 1s;}
      .fc{animation:floatC 7s ease-in-out infinite 0.5s;}
      @keyframes borderPulse {
        0%,100%{stroke:#ff0080;} 50%{stroke:#00ffff;}
      }
      .border{animation:borderPulse 4s ease-in-out infinite;}
    ]]></style>
  </defs>

  <rect width="900" height="100" fill="url(#bg)"/>
  <g opacity=".025" stroke="#b700ff" stroke-width=".5">
    <line x1="0" y1="33" x2="900" y2="33"/>
    <line x1="0" y1="66" x2="900" y2="66"/>
    <line x1="90"  y1="0" x2="90"  y2="100"/>
    <line x1="180" y1="0" x2="180" y2="100"/>
    <line x1="270" y1="0" x2="270" y2="100"/>
    <line x1="360" y1="0" x2="360" y2="100"/>
    <line x1="450" y1="0" x2="450" y2="100"/>
    <line x1="540" y1="0" x2="540" y2="100"/>
    <line x1="630" y1="0" x2="630" y2="100"/>
    <line x1="720" y1="0" x2="720" y2="100"/>
    <line x1="810" y1="0" x2="810" y2="100"/>
  </g>

  <!-- Mini floating icons (footer) -->
  <!-- Swift -->
  <g class="fa" transform="translate(40,18) scale(0.45)">
    <rect x="0" y="0" width="52" height="52" rx="12" fill="#FA7343"/>
    <g transform="translate(6,6) scale(1.6)"><path d="M7.508 0c-.287 0-.573 0-.86.002-.241.002-.483.003-.724.01-.132.003-.263.009-.395.015A9.154 9.154 0 0 0 4.348.15 5.492 5.492 0 0 0 2.85.645 5.04 5.04 0 0 0 .645 2.848c-.245.48-.4.972-.495 1.5-.093.52-.122 1.05-.136 1.576a35.2 35.2 0 0 0-.012.724C0 6.935 0 7.221 0 7.508v8.984c0 .287 0 .575.002.862.002.24.005.481.012.722.014.526.043 1.057.136 1.576.095.528.25 1.02.495 1.5a5.03 5.03 0 0 0 2.205 2.203c.48.244.97.4 1.498.495.52.093 1.05.124 1.576.138.241.007.483.009.724.01.287.002.573.002.86.002h8.984c.287 0 .573 0 .86-.002.241-.001.483-.003.724-.01a10.523 10.523 0 0 0 1.578-.138 5.322 5.322 0 0 0 1.498-.495 5.035 5.035 0 0 0 2.203-2.203c.245-.48.4-.972.495-1.5.093-.52.124-1.05.138-1.576.007-.241.009-.481.01-.722.002-.287.002-.575.002-.862V7.508c0-.287 0-.573-.002-.86a33.662 33.662 0 0 0-.01-.724 10.5 10.5 0 0 0-.138-1.576 5.328 5.328 0 0 0-.495-1.5A5.039 5.039 0 0 0 21.152.645 5.32 5.32 0 0 0 19.654.15a10.493 10.493 0 0 0-1.578-.138 34.98 34.98 0 0 0-.722-.01C17.067 0 16.779 0 16.492 0H7.508zm6.035 3.41c4.114 2.47 6.545 7.162 5.549 11.131-.024.093-.05.181-.076.272l.002.001c2.062 2.538 1.5 5.258 1.236 4.745-1.072-2.086-3.066-1.568-4.088-1.043a6.803 6.803 0 0 1-.281.158l-.02.012-.002.002c-2.115 1.123-4.957 1.205-7.812-.022a12.568 12.568 0 0 1-5.64-4.838c.649.48 1.35.902 2.097 1.252 3.019 1.414 6.051 1.311 8.197-.002C9.651 12.73 7.101 9.67 5.146 7.191a10.628 10.628 0 0 1-1.005-1.384c2.34 2.142 6.038 4.83 7.365 5.576C8.69 8.408 6.208 4.743 6.324 4.86c4.436 4.47 8.528 6.996 8.528 6.996.154.085.27.154.36.213.085-.215.16-.437.224-.668.708-2.588-.09-5.548-1.893-7.992z" fill="white"/></g>
  </g>
  <!-- Flutter -->
  <g class="fb" transform="translate(110,22) scale(0.42)">
    <g transform="translate(4,8) scale(1.9)"><path d="M14.314 0L2.3 12 6 15.7 21.684.013h-7.357zm.014 11.072L7.857 17.53l6.47 6.47H21.7l-6.46-6.468 6.46-6.46h-7.37z" fill="#54C5F8"/></g>
  </g>
  <!-- PHP -->
  <g class="fc" transform="translate(175,28) scale(0.42)">
    <ellipse cx="46" cy="20" rx="46" ry="21" fill="#777BB4"/>
    <text x="46" y="26" fill="white" font-size="18" font-weight="bold" text-anchor="middle" letter-spacing="2">php</text>
  </g>
  <!-- Git -->
  <g class="fa" transform="translate(272,20) scale(0.42)">
    <rect x="0" y="0" width="50" height="50" rx="8" fill="#F05032"/>
    <g transform="translate(4,4) scale(1.8)"><path d="M13.09 23.549a1.54 1.54 0 0 1-2.18 0L.451 13.089a1.54 1.54 0 0 1 0-2.179l7.191-7.19 2.733 2.733a1.85 1.85 0 0 0 .964 2.326v6.66a1.849 1.849 0 1 0 1.54 0V8.957l2.508 2.508a1.85 1.85 0 1 0 1.09-1.09l-2.634-2.634a1.85 1.85 0 0 0-2.378-2.377L8.73 2.63 10.91.451a1.54 1.54 0 0 1 2.179 0l10.459 10.46a1.54 1.54 0 0 1 0 2.179z" fill="white"/></g>
  </g>
  <!-- Android -->
  <g class="fb" transform="translate(348,14) scale(0.40)">
    <rect x="6" y="28" width="40" height="26" rx="5" fill="#3DDC84"/>
    <g transform="translate(2,10) scale(1.9)"><path d="M18.4395 5.5586c-.675 1.1664-1.352 2.3318-2.0274 3.498-.0366-.0155-.0742-.0286-.1113-.043-1.8249-.6957-3.484-.8-4.42-.787-1.8551.0185-3.3544.4643-4.2597.8203-.084-.1494-1.7526-3.021-2.0215-3.4864a1.1451 1.1451 0 0 0-.1406-.1914c-.3312-.364-.9054-.4859-1.379-.203-.475.282-.7136.9361-.3886 1.5019 1.9466 3.3696-.0966-.2158 1.9473 3.3593.0172.031-.4946.2642-1.3926 1.0177C2.8987 12.176.452 14.772 0 18.9902h24c-.119-1.1108-.3686-2.099-.7461-3.0683-.7438-1.9118-1.8435-3.2928-2.7402-4.1836a12.1048 12.1048 0 0 0-2.1309-1.6875c.6594-1.122 1.312-2.2559 1.9649-3.3848.2077-.3615.1886-.7956-.0079-1.1191a1.1001 1.1001 0 0 0-.8515-.5332c-.5225-.0536-.9392.3128-1.0488.5449zm-.0391 8.461c.3944.5926.324 1.3306-.1563 1.6503-.4799.3197-1.188.0985-1.582-.4941-.3944-.5927-.324-1.3307.1563-1.6504.4727-.315 1.1812-.1086 1.582.4941zM7.207 13.5273c.4803.3197.5506 1.0577.1563 1.6504-.394.5926-1.1038.8138-1.584.4941-.48-.3197-.5503-1.0577-.1563-1.6504.4008-.6021 1.1087-.8106 1.584-.4941z" fill="#3DDC84"/></g>
  </g>
  <!-- Windows -->
  <g class="fc" transform="translate(432,26) scale(0.44)">
    <rect x="0"  y="0"  width="22" height="22" rx="3" fill="#F35325"/>
    <rect x="26" y="0"  width="22" height="22" rx="3" fill="#81BC06"/>
    <rect x="0"  y="26" width="22" height="22" rx="3" fill="#05A6F0"/>
    <rect x="26" y="26" width="22" height="22" rx="3" fill="#FFBA08"/>
  </g>
  <!-- JS -->
  <g class="fa" transform="translate(520,22) scale(0.44)">
    <rect x="0" y="0" width="52" height="52" rx="5" fill="#F7DF1E"/>
    <g transform="translate(4,4) scale(1.9)"><path d="M0 0h24v24H0V0zm22.034 18.276c-.175-1.095-.888-2.015-3.003-2.873-.736-.345-1.554-.585-1.797-1.14-.091-.33-.105-.51-.046-.705.15-.646.915-.84 1.515-.66.39.12.75.42.976.9 1.034-.676 1.034-.676 1.755-1.125-.27-.42-.404-.601-.586-.78-.63-.705-1.469-1.065-2.834-1.034l-.705.089c-.676.165-1.32.525-1.71 1.005-1.14 1.291-.811 3.541.569 4.471 1.365 1.02 3.361 1.244 3.616 2.205.24 1.17-.87 1.545-1.966 1.41-.811-.18-1.26-.586-1.755-1.336l-1.83 1.051c.21.48.45.689.81 1.109 1.74 1.756 6.09 1.666 6.871-1.004.029-.09.24-.705.074-1.65l.046.067zm-8.983-7.245h-2.248c0 1.938-.009 3.864-.009 5.805 0 1.232.063 2.363-.138 2.711-.33.689-1.18.601-1.566.48-.396-.196-.597-.466-.83-.855-.063-.105-.11-.196-.127-.196l-1.825 1.125c.305.63.75 1.172 1.324 1.517.855.51 2.004.675 3.207.405.783-.226 1.458-.691 1.811-1.411.51-.93.402-2.07.397-3.346.012-2.054 0-4.109 0-6.179l.004-.056z" fill="#1a1a2e"/></g>
  </g>
  <!-- Laravel -->
  <g class="fb" transform="translate(598,20) scale(0.44)">
    <rect x="0" y="0" width="52" height="52" rx="10" fill="#FF2D20"/>
    <text x="26" y="40" fill="white" font-size="32" font-weight="bold" text-anchor="middle" font-style="italic">L</text>
  </g>
  <!-- macOS circle -->
  <g class="fc" transform="translate(680,22) scale(0.44)">
    <path d="M30,0 A30,30 0 0,1 60,30" fill="#34C759"/>
    <path d="M60,30 A30,30 0 0,1 30,60" fill="#007AFF"/>
    <path d="M30,60 A30,30 0 0,1 0,30" fill="#FF3B30"/>
    <path d="M0,30 A30,30 0 0,1 30,0" fill="#FF9500"/>
    <circle cx="30" cy="30" r="12" fill="#04060f"/>
  </g>
  <!-- Apple -->
  <g class="fa" transform="translate(760,22) scale(0.50)">
    <g transform="translate(6,6) scale(1.5)"><path d="M12.152 6.896c-.948 0-2.415-1.078-3.96-1.04-2.04.027-3.91 1.183-4.961 3.014-2.117 3.675-.546 9.103 1.519 12.09 1.013 1.454 2.208 3.09 3.792 3.039 1.52-.065 2.09-.987 3.935-.987 1.831 0 2.35.987 3.96.948 1.637-.026 2.676-1.48 3.676-2.948 1.156-1.688 1.636-3.325 1.662-3.415-.039-.013-3.182-1.221-3.22-4.857-.026-3.04 2.48-4.494 2.597-4.559-1.429-2.09-3.623-2.324-4.39-2.376-2-.156-3.675 1.09-4.61 1.09zM15.53 3.83c.843-1.012 1.4-2.427 1.245-3.83-1.207.052-2.662.805-3.532 1.818-.78.896-1.454 2.338-1.273 3.714 1.338.104 2.715-.688 3.559-1.701" fill="#e2e8f0"/></g>
  </g>
  <!-- VS Code -->
  <g class="fb" transform="translate(832,22) scale(0.44)">
    <rect x="0" y="0" width="52" height="52" rx="10" fill="#007ACC"/>
    <polyline points="34,12 20,26 34,40" fill="none" stroke="white" stroke-width="5" stroke-linecap="round" stroke-linejoin="round"/>
    <line x1="38" y1="12" x2="38" y2="40" stroke="white" stroke-width="5" stroke-linecap="round" opacity=".7"/>
  </g>

  <!-- Top border gradient -->
  <rect class="border" x="0" y="0" width="900" height="2.5" fill="url(#waveTop)"/>

  <!-- Center text -->
  <text x="450" y="62" fill="#4a5568" font-size="11" text-anchor="middle" letter-spacing="3" filter="url(#glow)">◈  Built with passion · iOS · Fullstack · Flutter  ◈</text>
  <text x="450" y="80" fill="#1e2d4a" font-size="10" text-anchor="middle" letter-spacing="2">© faqih55 · 2025 · Indonesia</text>
</svg>
