<svg xmlns="http://www.w3.org/2000/svg" viewBox="0 0 900 280" width="900" height="280">
  <defs>
    <linearGradient id="bg" x1="0" y1="0" x2="1" y2="1">
      <stop offset="0%"  stop-color="#04060f"/>
      <stop offset="100%" stop-color="#070b18"/>
    </linearGradient>
    <filter id="titleGlow">
      <feGaussianBlur stdDeviation="5" result="b"/>
      <feMerge><feMergeNode in="b"/><feMergeNode in="b"/><feMergeNode in="SourceGraphic"/></feMerge>
    </filter>
    <style><![CDATA[
      text { font-family: 'Courier New', Consolas, 'Lucida Console', monospace; }

      /* ── Inner CW orbit: rx=228, ry=90 ── */
      @keyframes inner-cw {
        0%     { transform: translate( 228px,   0px); }
        8.33%  { transform: translate( 197px,  45px); }
        16.67% { transform: translate( 114px,  78px); }
        25%    { transform: translate(   0px,  90px); }
        33.33% { transform: translate(-114px,  78px); }
        41.67% { transform: translate(-197px,  45px); }
        50%    { transform: translate(-228px,   0px); }
        58.33% { transform: translate(-197px, -45px); }
        66.67% { transform: translate(-114px, -78px); }
        75%    { transform: translate(   0px, -90px); }
        83.33% { transform: translate( 114px, -78px); }
        91.67% { transform: translate( 197px, -45px); }
        100%   { transform: translate( 228px,   0px); }
      }

      /* ── Outer CCW orbit: rx=290, ry=122 ── */
      @keyframes outer-ccw {
        0%     { transform: translate( 290px,    0px); }
        8.33%  { transform: translate( 251px,  -61px); }
        16.67% { transform: translate( 145px, -106px); }
        25%    { transform: translate(   0px, -122px); }
        33.33% { transform: translate(-145px, -106px); }
        41.67% { transform: translate(-251px,  -61px); }
        50%    { transform: translate(-290px,    0px); }
        58.33% { transform: translate(-251px,   61px); }
        66.67% { transform: translate(-145px,  106px); }
        75%    { transform: translate(   0px,  122px); }
        83.33% { transform: translate( 145px,  106px); }
        91.67% { transform: translate( 251px,   61px); }
        100%   { transform: translate( 290px,    0px); }
      }

      .in0 { animation: inner-cw 14s linear    0s infinite; }
      .in1 { animation: inner-cw 14s linear   -2s infinite; }
      .in2 { animation: inner-cw 14s linear   -4s infinite; }
      .in3 { animation: inner-cw 14s linear   -6s infinite; }
      .in4 { animation: inner-cw 14s linear   -8s infinite; }
      .in5 { animation: inner-cw 14s linear  -10s infinite; }
      .in6 { animation: inner-cw 14s linear  -12s infinite; }

      .ou0 { animation: outer-ccw 22s linear    0s    infinite; }
      .ou1 { animation: outer-ccw 22s linear   -2.75s infinite; }
      .ou2 { animation: outer-ccw 22s linear   -5.5s  infinite; }
      .ou3 { animation: outer-ccw 22s linear   -8.25s infinite; }
      .ou4 { animation: outer-ccw 22s linear  -11s    infinite; }
      .ou5 { animation: outer-ccw 22s linear  -13.75s infinite; }
      .ou6 { animation: outer-ccw 22s linear  -16.5s  infinite; }
      .ou7 { animation: outer-ccw 22s linear  -19.25s infinite; }

      @keyframes bt { 0%,100%{fill:#00ffff;} 50%{fill:#b700ff;} }
      @keyframes bb { 0%,100%{fill:#b700ff;} 50%{fill:#00ffff;} }
      .bt { animation: bt 4s ease-in-out infinite; }
      .bb { animation: bb 4s ease-in-out infinite 2s; }

      @keyframes tp { 0%,100%{opacity:1;} 50%{opacity:.88;} }
      .title { animation: tp 4s ease-in-out infinite; }

      @keyframes sf { 0%,100%{opacity:.8;} 50%{opacity:1;} }
      .subtitle { animation: sf 3s ease-in-out infinite 1s; }
    ]]></style>
  </defs>

  <!-- Background -->
  <rect width="900" height="280" fill="url(#bg)"/>

  <!-- Subtle grid -->
  <g opacity=".025" stroke="#00ffff" stroke-width=".5">
    <line x1="0" y1="93"  x2="900" y2="93"/>
    <line x1="0" y1="186" x2="900" y2="186"/>
    <line x1="90"  y1="0" x2="90"  y2="280"/>
    <line x1="180" y1="0" x2="180" y2="280"/>
    <line x1="270" y1="0" x2="270" y2="280"/>
    <line x1="360" y1="0" x2="360" y2="280"/>
    <line x1="450" y1="0" x2="450" y2="280"/>
    <line x1="540" y1="0" x2="540" y2="280"/>
    <line x1="630" y1="0" x2="630" y2="280"/>
    <line x1="720" y1="0" x2="720" y2="280"/>
    <line x1="810" y1="0" x2="810" y2="280"/>
  </g>

  <!-- Orbit tracks -->
  <ellipse cx="450" cy="135" rx="228" ry="90"  fill="none" stroke="#00ffff" stroke-width=".8" stroke-dasharray="3,9" opacity=".18"/>
  <ellipse cx="450" cy="135" rx="290" ry="122" fill="none" stroke="#b700ff" stroke-width=".8" stroke-dasharray="3,11" opacity=".12"/>

  <!-- ══════════════════════════════════════
       INNER ORBIT — CW, 14s, 7 icons
       Each icon: Simple Icons path scaled to ~26px,
       centered at (0,0), inside a colored pill/square
  ══════════════════════════════════════ -->

  <!-- in0: Swift — real Swift logo (orange rounded rect + bird path) -->
  <g transform="translate(450,135)"><g class="in0">
    <rect x="-15" y="-15" width="30" height="30" rx="7" fill="#FA7343"/>
    <!-- Swift path from simpleicons, 24x24→scaled to fit 22px, centered -->
    <g transform="translate(-11,-11) scale(0.917)">
      <path d="M7.508 0c-.287 0-.573 0-.86.002-.241.002-.483.003-.724.01-.132.003-.263.009-.395.015A9.154 9.154 0 0 0 4.348.15 5.492 5.492 0 0 0 2.85.645 5.04 5.04 0 0 0 .645 2.848c-.245.48-.4.972-.495 1.5-.093.52-.122 1.05-.136 1.576a35.2 35.2 0 0 0-.012.724C0 6.935 0 7.221 0 7.508v8.984c0 .287 0 .575.002.862.002.24.005.481.012.722.014.526.043 1.057.136 1.576.095.528.25 1.02.495 1.5a5.03 5.03 0 0 0 2.205 2.203c.48.244.97.4 1.498.495.52.093 1.05.124 1.576.138.241.007.483.009.724.01.287.002.573.002.86.002h8.984c.287 0 .573 0 .86-.002.241-.001.483-.003.724-.01a10.523 10.523 0 0 0 1.578-.138 5.322 5.322 0 0 0 1.498-.495 5.035 5.035 0 0 0 2.203-2.203c.245-.48.4-.972.495-1.5.093-.52.124-1.05.138-1.576.007-.241.009-.481.01-.722.002-.287.002-.575.002-.862V7.508c0-.287 0-.573-.002-.86a33.662 33.662 0 0 0-.01-.724 10.5 10.5 0 0 0-.138-1.576 5.328 5.328 0 0 0-.495-1.5A5.039 5.039 0 0 0 21.152.645 5.32 5.32 0 0 0 19.654.15a10.493 10.493 0 0 0-1.578-.138 34.98 34.98 0 0 0-.722-.01C17.067 0 16.779 0 16.492 0H7.508zm6.035 3.41c4.114 2.47 6.545 7.162 5.549 11.131-.024.093-.05.181-.076.272l.002.001c2.062 2.538 1.5 5.258 1.236 4.745-1.072-2.086-3.066-1.568-4.088-1.043a6.803 6.803 0 0 1-.281.158l-.02.012-.002.002c-2.115 1.123-4.957 1.205-7.812-.022a12.568 12.568 0 0 1-5.64-4.838c.649.48 1.35.902 2.097 1.252 3.019 1.414 6.051 1.311 8.197-.002C9.651 12.73 7.101 9.67 5.146 7.191a10.628 10.628 0 0 1-1.005-1.384c2.34 2.142 6.038 4.83 7.365 5.576C8.69 8.408 6.208 4.743 6.324 4.86c4.436 4.47 8.528 6.996 8.528 6.996.154.085.27.154.36.213.085-.215.16-.437.224-.668.708-2.588-.09-5.548-1.893-7.992z" fill="white"/>
    </g>
  </g></g>

  <!-- in1: Apple — real Apple logo (white, no background) -->
  <g transform="translate(450,135)"><g class="in1">
    <circle cx="0" cy="0" r="16" fill="#1a1a2e" opacity=".5"/>
    <g transform="translate(-12,-12) scale(1)">
      <path d="M12.152 6.896c-.948 0-2.415-1.078-3.96-1.04-2.04.027-3.91 1.183-4.961 3.014-2.117 3.675-.546 9.103 1.519 12.09 1.013 1.454 2.208 3.09 3.792 3.039 1.52-.065 2.09-.987 3.935-.987 1.831 0 2.35.987 3.96.948 1.637-.026 2.676-1.48 3.676-2.948 1.156-1.688 1.636-3.325 1.662-3.415-.039-.013-3.182-1.221-3.22-4.857-.026-3.04 2.48-4.494 2.597-4.559-1.429-2.09-3.623-2.324-4.39-2.376-2-.156-3.675 1.09-4.61 1.09zM15.53 3.83c.843-1.012 1.4-2.427 1.245-3.83-1.207.052-2.662.805-3.532 1.818-.78.896-1.454 2.338-1.273 3.714 1.338.104 2.715-.688 3.559-1.701" fill="#e2e2e2"/>
    </g>
  </g></g>

  <!-- in2: Git — real Git logo (F05032 red) -->
  <g transform="translate(450,135)"><g class="in2">
    <circle cx="0" cy="0" r="16" fill="#F05032"/>
    <g transform="translate(-12,-12) scale(1)">
      <path d="M13.09 23.549a1.54 1.54 0 0 1-2.18 0L.451 13.089a1.54 1.54 0 0 1 0-2.179l7.191-7.19 2.733 2.733a1.85 1.85 0 0 0 .964 2.326v6.66a1.849 1.849 0 1 0 1.54 0V8.957l2.508 2.508a1.85 1.85 0 1 0 1.09-1.09l-2.634-2.634a1.85 1.85 0 0 0-2.378-2.377L8.73 2.63 10.91.451a1.54 1.54 0 0 1 2.179 0l10.459 10.46a1.54 1.54 0 0 1 0 2.179z" fill="white"/>
    </g>
  </g></g>

  <!-- in3: Flutter — real Flutter logo (cyan) -->
  <g transform="translate(450,135)"><g class="in3">
    <circle cx="0" cy="0" r="16" fill="#0a1628"/>
    <g transform="translate(-12,-12) scale(1)">
      <path d="M14.314 0L2.3 12 6 15.7 21.684.013h-7.357zm.014 11.072L7.857 17.53l6.47 6.47H21.7l-6.46-6.468 6.46-6.46h-7.37z" fill="#54C5F8"/>
    </g>
  </g></g>

  <!-- in4: Android — real Android logo (green) -->
  <g transform="translate(450,135)"><g class="in4">
    <circle cx="0" cy="0" r="16" fill="#0a1a0a"/>
    <g transform="translate(-12,-12) scale(1)">
      <path d="M18.4395 5.5586c-.675 1.1664-1.352 2.3318-2.0274 3.498-.0366-.0155-.0742-.0286-.1113-.043-1.8249-.6957-3.484-.8-4.42-.787-1.8551.0185-3.3544.4643-4.2597.8203-.084-.1494-1.7526-3.021-2.0215-3.4864a1.1451 1.1451 0 0 0-.1406-.1914c-.3312-.364-.9054-.4859-1.379-.203-.475.282-.7136.9361-.3886 1.5019 1.9466 3.3696-.0966-.2158 1.9473 3.3593.0172.031-.4946.2642-1.3926 1.0177C2.8987 12.176.452 14.772 0 18.9902h24c-.119-1.1108-.3686-2.099-.7461-3.0683-.7438-1.9118-1.8435-3.2928-2.7402-4.1836a12.1048 12.1048 0 0 0-2.1309-1.6875c.6594-1.122 1.312-2.2559 1.9649-3.3848.2077-.3615.1886-.7956-.0079-1.1191a1.1001 1.1001 0 0 0-.8515-.5332c-.5225-.0536-.9392.3128-1.0488.5449zm-.0391 8.461c.3944.5926.324 1.3306-.1563 1.6503-.4799.3197-1.188.0985-1.582-.4941-.3944-.5927-.324-1.3307.1563-1.6504.4727-.315 1.1812-.1086 1.582.4941zM7.207 13.5273c.4803.3197.5506 1.0577.1563 1.6504-.394.5926-1.1038.8138-1.584.4941-.48-.3197-.5503-1.0577-.1563-1.6504.4008-.6021 1.1087-.8106 1.584-.4941z" fill="#3DDC84"/>
    </g>
  </g></g>

  <!-- in5: Windows — real 4-pane logo (actual brand colors) -->
  <g transform="translate(450,135)"><g class="in5">
    <circle cx="0" cy="0" r="16" fill="#0a0a1a"/>
    <!-- Windows logo: 4 colored rectangles in perspective -->
    <rect x="-13" y="-13" width="11" height="11" rx="1.5" fill="#F35325"/>
    <rect x="-1"  y="-13" width="14" height="11" rx="1.5" fill="#81BC06"/>
    <rect x="-13" y="-1"  width="11" height="14" rx="1.5" fill="#05A6F0"/>
    <rect x="-1"  y="-1"  width="14" height="14" rx="1.5" fill="#FFBA08"/>
  </g></g>

  <!-- in6: JavaScript — real JS logo (yellow square, JS) -->
  <g transform="translate(450,135)"><g class="in6">
    <rect x="-15" y="-15" width="30" height="30" rx="3" fill="#F7DF1E"/>
    <g transform="translate(-12,-12) scale(1)">
      <path d="M0 0h24v24H0V0zm22.034 18.276c-.175-1.095-.888-2.015-3.003-2.873-.736-.345-1.554-.585-1.797-1.14-.091-.33-.105-.51-.046-.705.15-.646.915-.84 1.515-.66.39.12.75.42.976.9 1.034-.676 1.034-.676 1.755-1.125-.27-.42-.404-.601-.586-.78-.63-.705-1.469-1.065-2.834-1.034l-.705.089c-.676.165-1.32.525-1.71 1.005-1.14 1.291-.811 3.541.569 4.471 1.365 1.02 3.361 1.244 3.616 2.205.24 1.17-.87 1.545-1.966 1.41-.811-.18-1.26-.586-1.755-1.336l-1.83 1.051c.21.48.45.689.81 1.109 1.74 1.756 6.09 1.666 6.871-1.004.029-.09.24-.705.074-1.65l.046.067zm-8.983-7.245h-2.248c0 1.938-.009 3.864-.009 5.805 0 1.232.063 2.363-.138 2.711-.33.689-1.18.601-1.566.48-.396-.196-.597-.466-.83-.855-.063-.105-.11-.196-.127-.196l-1.825 1.125c.305.63.75 1.172 1.324 1.517.855.51 2.004.675 3.207.405.783-.226 1.458-.691 1.811-1.411.51-.93.402-2.07.397-3.346.012-2.054 0-4.109 0-6.179l.004-.056z" fill="#1a1a2e"/>
    </g>
  </g></g>

  <!-- ══════════════════════════════════════
       OUTER ORBIT — CCW, 22s, 8 icons
  ══════════════════════════════════════ -->

  <!-- ou0: VS Code — bracket icon on blue bg -->
  <g transform="translate(450,135)"><g class="ou0">
    <rect x="-16" y="-16" width="32" height="32" rx="7" fill="#007ACC"/>
    <!-- VS Code path hand-drawn (real logo is complex, use clean geometric) -->
    <polyline points="4,-10 -6,0 4,10" fill="none" stroke="white" stroke-width="3.5" stroke-linecap="round" stroke-linejoin="round"/>
    <line x1="9" y1="-10" x2="9" y2="10" stroke="white" stroke-width="3.5" stroke-linecap="round" opacity=".65"/>
  </g></g>

  <!-- ou1: PHP — real PHP logo -->
  <g transform="translate(450,135)"><g class="ou1">
    <ellipse cx="0" cy="0" rx="20" ry="12" fill="#777BB4"/>
    <g transform="translate(-12,-12) scale(1)">
      <path d="M7.01 10.207h-.944l-.515 2.648h.838c.556 0 .97-.105 1.242-.314.272-.21.455-.559.55-1.049.092-.47.05-.802-.124-.995-.175-.193-.523-.29-1.047-.29zM12 5.688C5.373 5.688 0 8.514 0 12s5.373 6.313 12 6.313S24 15.486 24 12c0-3.486-5.373-6.312-12-6.312zm-3.26 7.451c-.261.25-.575.438-.917.551-.336.108-.765.164-1.285.164H5.357l-.327 1.681H3.652l1.23-6.326h2.65c.797 0 1.378.209 1.744.628.366.418.476 1.002.33 1.752a2.836 2.836 0 0 1-.305.847c-.143.255-.33.49-.561.703zm4.024.715l.543-2.799c.063-.318.039-.536-.068-.651-.107-.116-.336-.174-.687-.174H11.46l-.704 3.625H9.388l1.23-6.327h1.367l-.327 1.682h1.218c.767 0 1.295.134 1.586.401s.378.7.263 1.299l-.572 2.944h-1.389zm7.597-2.265a2.782 2.782 0 0 1-.305.847c-.143.255-.33.49-.561.703a2.44 2.44 0 0 1-.917.551c-.336.108-.765.164-1.286.164h-1.18l-.327 1.682h-1.378l1.23-6.326h2.649c.797 0 1.378.209 1.744.628.366.417.477 1.001.331 1.751zM17.766 10.207h-.943l-.516 2.648h.838c.557 0 .971-.105 1.242-.314.272-.21.455-.559.551-1.049.092-.47.049-.802-.125-.995s-.524-.29-1.047-.29z" fill="white"/>
    </g>
  </g></g>

  <!-- ou2: Linux — Tux penguin (yellow, simplified recognizable) -->
  <g transform="translate(450,135)"><g class="ou2">
    <circle cx="0" cy="0" r="17" fill="#1a1a0a"/>
    <g transform="translate(-12,-12) scale(1)">
      <path d="M12.504 0c-.155 0-.315.008-.48.021-4.226.333-3.105 4.807-3.17 6.298-.076 1.092-.3 1.953-1.05 3.02-.885 1.051-2.127 2.75-2.716 4.521-.278.832-.41 1.684-.287 2.489a.424.424 0 00-.11.135c-.26.268-.45.6-.663.839-.199.199-.485.267-.797.4-.313.136-.658.269-.864.68-.09.189-.136.394-.132.602 0 .199.027.4.055.536.058.399.116.728.04.97-.249.68-.28 1.145-.106 1.484.174.334.535.47.94.601.81.2 1.91.135 2.774.6.926.466 1.866.67 2.616.47.526-.116.97-.464 1.208-.946.587-.003 1.23-.269 2.26-.334.699-.058 1.574.267 2.577.2.025.134.063.198.114.333l.003.003c.391.778 1.113 1.132 1.884 1.071.771-.06 1.592-.536 2.257-1.306.631-.765 1.683-1.084 2.378-1.503.348-.199.629-.469.649-.853.023-.4-.2-.811-.714-1.376v-.097l-.003-.003c-.17-.2-.25-.535-.338-.926-.085-.401-.182-.786-.492-1.046h-.003c-.059-.054-.123-.067-.188-.135a.357.357 0 00-.19-.064c.431-1.278.264-2.55-.173-3.694-.533-1.41-1.465-2.638-2.175-3.483-.796-1.005-1.576-1.957-1.56-3.368.026-2.152.236-6.133-3.544-6.139z" fill="#F5C518"/>
    </g>
  </g></g>

  <!-- ou3: Xcode — real Xcode logo on blue bg -->
  <g transform="translate(450,135)"><g class="ou3">
    <rect x="-16" y="-16" width="32" height="32" rx="7" fill="#147EFB"/>
    <g transform="translate(-12,-12) scale(1)">
      <path d="M19.06 5.3327c.4517-.1936.7744-.2581 1.097-.1936.5163.1291.7744.5163.968.7098.1936.3872.9034.7744 1.2261.8389.2581.0645.7098-.6453 1.0325-1.2906.3227-.5808.5163-1.3552.4517-1.5488-.0645-.1936-.968-.5808-1.1616-.5808-.1291 0-.3872.1291-.8389.0645-.4517-.0645-.9034-.5808-1.1616-.968-.4517-.6453-1.097-1.0325-1.6778-1.3552-.6453-.3227-1.3552-.5163-2.065-.6453-1.0325-.2581-2.065-.4517-3.0975-.3227-.5808.0645-1.2906.1291-1.8069.3227-.0645 0-.1936.1936-.0645.1936s.5808.0645.5808.0645-.5807.1292-.5807.2583c0 .1291.0645.1291.1291.1291.0645 0 1.4842-.0645 2.065 0 .6453.1291 1.3552.4517 1.8069 1.2261.7744 1.4197.4517 2.7749.2581 3.2266-.968 2.1295-8.6472 15.2294-9.0344 16.1328-.3873.9034-.5163 1.4842.5807 2.065s1.6778.3227 2.0005-.0645c.3872-.5163 7.0339-17.1654 9.2925-18.2624zm-3.6138 8.7117h1.5488c1.0325 0 1.2261.5163 1.2261.7098.0645.5163-.1936 1.1616-1.2261 1.1616h-.968l.7744 1.2906c.4517.7744.2581 1.1616 0 1.4197-.3872.3872-1.2261.3872-1.6778-.4517l-.9034-1.5488c-.6453 1.4197-1.2906 2.9684-2.065 4.7753h4.0009c1.9359 0 3.5492-1.6133 3.5492-3.5492V6.5588c-.0645-.1291-.1936-.0645-.2581 0-.3872.4517-1.4842 2.0004-4.001 7.4856zm-9.8087 8.0019h-.3227c-2.3231 0-4.1945-1.8714-4.1945-4.1945V7.0105c0-2.3231 1.8714-4.1945 4.1945-4.1945h9.3571c-.1936-.1936-.968-.5163-1.7423-.4517-.3227 0-.968.1291-1.3552-.1291-.3872-.3227-.3227-.5163-.9034-.5163H4.9277c-2.6458 0-4.7753 2.1295-4.7753 4.7753v11.7447c0 2.6458 2.1295 4.7753 4.4527 4.7108.6452 0 .8388-.5162 1.0324-.9034z" fill="white"/>
    </g>
  </g></g>

  <!-- ou4: Laravel — real Laravel logo (red bg) -->
  <g transform="translate(450,135)"><g class="ou4">
    <rect x="-16" y="-16" width="32" height="32" rx="7" fill="#FF2D20"/>
    <g transform="translate(-12,-12) scale(1)">
      <path d="M23.642 5.43a.364.364 0 01.014.1v5.149c0 .135-.073.26-.189.326l-4.323 2.49v4.934a.378.378 0 01-.188.326L9.93 23.949a.316.316 0 01-.066.027c-.008.002-.016.008-.024.01a.348.348 0 01-.192 0c-.011-.002-.02-.008-.03-.012-.02-.008-.042-.014-.062-.025L.533 18.755a.376.376 0 01-.189-.326V2.974c0-.033.005-.066.014-.098.003-.012.01-.02.014-.032a.369.369 0 01.023-.058c.004-.013.015-.022.023-.033l.033-.045c.012-.01.025-.018.037-.027.014-.012.027-.024.041-.034H.53L5.043.05a.375.375 0 01.375 0L9.93 2.647h.002c.015.01.027.021.04.033l.038.027c.013.014.02.03.033.045.008.011.02.021.025.033.01.02.017.038.024.058.003.011.01.021.013.032.01.031.014.064.014.098v9.652l3.76-2.164V5.527c0-.033.004-.066.013-.098.003-.01.01-.02.013-.032a.487.487 0 01.024-.059c.007-.012.018-.02.025-.033.012-.015.021-.03.033-.043.012-.012.025-.02.037-.028.014-.01.026-.023.041-.032h.001l4.513-2.598a.375.375 0 01.375 0l4.513 2.598c.016.01.027.021.042.031.012.01.025.018.036.028.013.014.022.03.034.044.008.012.019.021.024.033.011.02.018.04.024.06.006.01.012.021.015.032zm-.74 5.032V6.179l-1.578.908-2.182 1.256v4.283zm-4.51 7.75v-4.287l-2.147 1.225-6.126 3.498v4.325zM1.093 3.624v14.588l8.273 4.761v-4.325l-4.322-2.445-.002-.003H5.04c-.014-.01-.025-.021-.04-.031-.011-.01-.024-.018-.035-.027l-.001-.002c-.013-.012-.021-.025-.031-.04-.01-.011-.021-.022-.028-.036h-.002c-.008-.014-.013-.031-.02-.047-.006-.016-.014-.027-.018-.043a.49.49 0 01-.008-.057c-.002-.014-.006-.027-.006-.041V5.789l-2.18-1.257zM5.23.81L1.47 2.974l3.76 2.164 3.758-2.164zm1.956 13.505l2.182-1.256V3.624l-1.58.91-2.182 1.255v9.435zm11.581-10.95l-3.76 2.163 3.76 2.163 3.759-2.164zm-.376 4.978L16.21 7.087 14.63 6.18v4.283l2.182 1.256 1.58.908zm-8.65 9.654l5.514-3.148 2.756-1.572-3.757-2.163-4.323 2.489-3.941 2.27z" fill="white"/>
    </g>
  </g></g>

  <!-- ou5: MySQL — real MySQL logo -->
  <g transform="translate(450,135)"><g class="ou5">
    <circle cx="0" cy="0" r="17" fill="#00618A"/>
    <g transform="translate(-12,-12) scale(1)">
      <path d="M16.405 5.501c-.115 0-.193.014-.274.033v.013h.014c.054.104.146.18.214.273.054.107.1.214.154.32l.014-.015c.094-.066.14-.172.14-.333-.04-.047-.046-.094-.08-.14-.04-.067-.126-.1-.18-.153zM5.77 18.695h-.927a50.854 50.854 0 00-.27-4.41h-.008l-1.41 4.41H2.45l-1.4-4.41h-.01a72.892 72.892 0 00-.195 4.41H0c.055-1.966.192-3.81.41-5.53h1.15l1.335 4.064h.008l1.347-4.064h1.095c.242 2.015.384 3.86.428 5.53zm4.017-4.08c-.378 2.045-.876 3.533-1.492 4.46-.482.716-1.01 1.073-1.583 1.073-.153 0-.34-.046-.566-.138v-.494c.11.017.24.026.386.026.268 0 .483-.075.647-.222.197-.18.295-.382.295-.605 0-.155-.077-.47-.23-.944L6.23 14.615h.91l.727 2.36c.164.536.233.91.205 1.123.4-1.064.678-2.227.835-3.483zm12.325 4.08h-2.63v-5.53h.885v4.85h1.745zm-3.32.135l-1.016-.5c.09-.076.177-.158.255-.25.433-.506.648-1.258.648-2.253 0-1.83-.718-2.746-2.155-2.746-.704 0-1.254.232-1.65.697-.43.508-.646 1.256-.646 2.245 0 .972.19 1.686.574 2.14.35.41.877.615 1.583.615.264 0 .506-.033.725-.098l1.325.772.36-.622zM15.5 17.588c-.225-.36-.337-.94-.337-1.736 0-1.393.424-2.09 1.27-2.09.443 0 .77.167.977.5.224.362.336.936.336 1.723 0 1.404-.424 2.108-1.27 2.108-.445 0-.77-.167-.978-.5z" fill="white"/>
    </g>
  </g></g>

  <!-- ou6: GitHub — real GitHub octocat logo -->
  <g transform="translate(450,135)"><g class="ou6">
    <circle cx="0" cy="0" r="17" fill="#1a1a2e"/>
    <circle cx="0" cy="0" r="16" fill="#24292e"/>
    <g transform="translate(-12,-12) scale(1)">
      <path d="M12 .297c-6.63 0-12 5.373-12 12 0 5.303 3.438 9.8 8.205 11.385.6.113.82-.258.82-.577 0-.285-.01-1.04-.015-2.04-3.338.724-4.042-1.61-4.042-1.61C4.422 18.07 3.633 17.7 3.633 17.7c-1.087-.744.084-.729.084-.729 1.205.084 1.838 1.236 1.838 1.236 1.07 1.835 2.809 1.305 3.495.998.108-.776.417-1.305.76-1.605-2.665-.3-5.466-1.332-5.466-5.93 0-1.31.465-2.38 1.235-3.22-.135-.303-.54-1.523.105-3.176 0 0 1.005-.322 3.3 1.23.96-.267 1.98-.399 3-.405 1.02.006 2.04.138 3 .405 2.28-1.552 3.285-1.23 3.285-1.23.645 1.653.24 2.873.12 3.176.765.84 1.23 1.91 1.23 3.22 0 4.61-2.805 5.625-5.475 5.92.42.36.81 1.096.81 2.22 0 1.606-.015 2.896-.015 3.286 0 .315.21.69.825.57C20.565 22.092 24 17.592 24 12.297c0-6.627-5.373-12-12-12" fill="white"/>
    </g>
  </g></g>

  <!-- ou7: macOS — Apple macOS Finder-style quadrant -->
  <g transform="translate(450,135)"><g class="ou7">
    <circle cx="0" cy="0" r="17" fill="#1a1a2e"/>
    <path d="M0,-16 A16,16 0 0,1 16,0"  fill="#34C759"/>
    <path d="M16,0  A16,16 0 0,1 0,16"  fill="#007AFF"/>
    <path d="M0,16  A16,16 0 0,1 -16,0" fill="#FF3B30"/>
    <path d="M-16,0 A16,16 0 0,1 0,-16" fill="#FF9500"/>
    <circle cx="0" cy="0" r="6" fill="#04060f"/>
  </g></g>

  <!-- ═══════════════════
       TITLE & SUBTITLE
  ═══════════════════ -->
  <text x="450" y="124" fill="#00ffff" font-size="78" font-weight="bold" text-anchor="middle"
        letter-spacing="8" opacity=".22" filter="url(#titleGlow)">FAQIH55</text>
  <text x="450" y="124" fill="#00ffff" font-size="78" font-weight="bold" text-anchor="middle"
        letter-spacing="8" class="title">FAQIH55</text>

  <text x="450" y="162" fill="#e2e8f0" font-size="14.5" text-anchor="middle"
        letter-spacing="2" class="subtitle">iOS Developer · Fullstack Engineer · Digital Craftsman</text>

  <line x1="55"  y1="162" x2="185" y2="162" stroke="#00ffff" stroke-width=".8" opacity=".3"/>
  <line x1="715" y1="162" x2="845" y2="162" stroke="#00ffff" stroke-width=".8" opacity=".3"/>

  <!-- Neon borders -->
  <rect class="bt" x="0" y="0"   width="900" height="2.5"/>
  <rect class="bb" x="0" y="277" width="900" height="2.5"/>

  <!-- Corner brackets -->
  <g fill="none" stroke="#00ffff" stroke-width="1.5" opacity=".5">
    <polyline points="0,22 0,0 22,0"/>
    <polyline points="878,0 900,0 900,22"/>
    <polyline points="0,258 0,280 22,280"/>
    <polyline points="878,280 900,280 900,258"/>
  </g>
</svg>
