<svg xmlns="http://www.w3.org/2000/svg" viewBox="0 0 900 480" width="900" height="480">
  <defs>
    <linearGradient id="bg" x1="0" y1="0" x2="1" y2="1">
      <stop offset="0%"   stop-color="#050810"/>
      <stop offset="50%"  stop-color="#080c18"/>
      <stop offset="100%" stop-color="#060a14"/>
    </linearGradient>
    <linearGradient id="hdr" x1="0" y1="0" x2="1" y2="0">
      <stop offset="0%"   stop-color="#00ffff" stop-opacity=".2"/>
      <stop offset="50%"  stop-color="#b700ff" stop-opacity=".12"/>
      <stop offset="100%" stop-color="#ff0080" stop-opacity=".2"/>
    </linearGradient>
    <linearGradient id="gSwift"   x1="0" y1="0" x2="1" y2="0">
      <stop offset="0%" stop-color="#fa7343"/><stop offset="100%" stop-color="#ff0080"/>
    </linearGradient>
    <linearGradient id="gPHP"   x1="0" y1="0" x2="1" y2="0">
      <stop offset="0%" stop-color="#777bb4"/><stop offset="100%" stop-color="#b700ff"/>
    </linearGradient>
    <linearGradient id="gFlutter" x1="0" y1="0" x2="1" y2="0">
      <stop offset="0%" stop-color="#027dfd"/><stop offset="100%" stop-color="#00ffff"/>
    </linearGradient>
    <linearGradient id="gJS" x1="0" y1="0" x2="1" y2="0">
      <stop offset="0%" stop-color="#f7df1e"/><stop offset="100%" stop-color="#ffd700"/>
    </linearGradient>
    <filter id="glow">
      <feGaussianBlur stdDeviation="2.5" result="b"/>
      <feMerge><feMergeNode in="b"/><feMergeNode in="SourceGraphic"/></feMerge>
    </filter>
    <filter id="glow-soft">
      <feGaussianBlur stdDeviation="1.5" result="b"/>
      <feMerge><feMergeNode in="b"/><feMergeNode in="SourceGraphic"/></feMerge>
    </filter>
    <filter id="icon-glow">
      <feGaussianBlur stdDeviation="4" result="b"/>
      <feMerge><feMergeNode in="b"/><feMergeNode in="SourceGraphic"/></feMerge>
    </filter>
    <clipPath id="c1"><rect x="673" y="222" width="202" height="10" rx="5"/></clipPath>
    <clipPath id="c2"><rect x="673" y="260" width="202" height="10" rx="5"/></clipPath>
    <clipPath id="c3"><rect x="673" y="298" width="202" height="10" rx="5"/></clipPath>
    <clipPath id="c4"><rect x="673" y="336" width="202" height="10" rx="5"/></clipPath>
    <style><![CDATA[
      text { font-family: 'Courier New', Consolas, 'Lucida Console', monospace; }

      @keyframes borderCycle {
        0%,100% { stroke:#00ffff; filter:drop-shadow(0 0 4px #00ffff); }
        50%      { stroke:#b700ff; filter:drop-shadow(0 0 4px #b700ff); }
      }
      .border-outer { animation: borderCycle 4s ease-in-out infinite; }

      @keyframes cornerBlink { 0%,100%{opacity:1;} 50%{opacity:.3;} }
      .corner { animation: cornerBlink 3s ease-in-out infinite; }

      @keyframes pulse { 0%,100%{opacity:1;} 50%{opacity:.3;} }
      .pulse { animation: pulse 2s ease-in-out infinite; }

      @keyframes blink { 0%,49%{opacity:1;} 50%,100%{opacity:0;} }
      .cursor { animation: blink 1s step-end infinite; }

      @keyframes scan {
        0%   { transform:translateY(0);   opacity:.07; }
        100% { transform:translateY(420px); opacity:0; }
      }
      .scan { animation: scan 5s linear infinite; }

      /* Tech icon float animations */
      @keyframes floatA { 0%,100%{transform:translateY(0) rotate(0deg);opacity:.13;} 50%{transform:translateY(-8px) rotate(3deg);opacity:.22;} }
      @keyframes floatB { 0%,100%{transform:translateY(0) rotate(0deg);opacity:.10;} 50%{transform:translateY(-6px) rotate(-3deg);opacity:.18;} }
      @keyframes floatC { 0%,100%{transform:translateY(0) rotate(0deg);opacity:.15;} 50%{transform:translateY(-10px) rotate(5deg);opacity:.25;} }
      @keyframes floatD { 0%,100%{transform:translateY(0) rotate(0deg);opacity:.08;} 50%{transform:translateY(-5px) rotate(-2deg);opacity:.16;} }
      @keyframes floatE { 0%,100%{transform:translateY(0) rotate(0deg);opacity:.12;} 50%{transform:translateY(-7px) rotate(4deg);opacity:.20;} }
      .fa { animation: floatA 6s ease-in-out infinite; }
      .fb { animation: floatB 7s ease-in-out infinite 1s; }
      .fc { animation: floatC 5s ease-in-out infinite 0.5s; }
      .fd { animation: floatD 8s ease-in-out infinite 1.5s; }
      .fe { animation: floatE 6.5s ease-in-out infinite 2s; }

      /* Terminal lines */
      @keyframes show { to { opacity:1; } }
      .l0{opacity:0;animation:show .01s  0.5s forwards;}
      .l1{opacity:0;animation:show .01s  1.3s forwards;}
      .l2{opacity:0;animation:show .01s  2.1s forwards;}
      .l3{opacity:0;animation:show .01s  2.9s forwards;}
      .l4{opacity:0;animation:show .01s  3.7s forwards;}
      .l5{opacity:0;animation:show .01s  4.5s forwards;}
      .l6{opacity:0;animation:show .01s  5.3s forwards;}
      .l7{opacity:0;animation:show .01s  6.1s forwards;}
      .l8{opacity:0;animation:show .01s  6.9s forwards;}

      /* Skill bars */
      @keyframes fillBar { from { width:0; } }
      .b1 { animation: fillBar 1.8s 1.0s ease-out forwards; width:0; }
      .b2 { animation: fillBar 1.8s 1.4s ease-out forwards; width:0; }
      .b3 { animation: fillBar 1.8s 1.8s ease-out forwards; width:0; }
      .b4 { animation: fillBar 1.8s 2.2s ease-out forwards; width:0; }

      @keyframes flicker {
        0%,18%,20%,52%,54%,100%{opacity:1;} 19%,53%{opacity:.5;}
      }
      .flicker { animation: flicker 6s infinite; }
    ]]></style>
  </defs>

  <!-- ═══ BACKGROUND ═══ -->
  <rect width="900" height="480" fill="url(#bg)"/>

  <!-- ══════════════════════════════════════════════
       FLOATING TECH ICONS (BACKGROUND LAYER)
       All icons are SVG-only, no external images
  ══════════════════════════════════════════════ -->

  <!-- === APPLE LOGO (top-left) === -->
  <g class="fa" transform="translate(55,68)">
    <g transform="translate(6,6) scale(1.3)"><path d="M12.152 6.896c-.948 0-2.415-1.078-3.96-1.04-2.04.027-3.91 1.183-4.961 3.014-2.117 3.675-.546 9.103 1.519 12.09 1.013 1.454 2.208 3.09 3.792 3.039 1.52-.065 2.09-.987 3.935-.987 1.831 0 2.35.987 3.96.948 1.637-.026 2.676-1.48 3.676-2.948 1.156-1.688 1.636-3.325 1.662-3.415-.039-.013-3.182-1.221-3.22-4.857-.026-3.04 2.48-4.494 2.597-4.559-1.429-2.09-3.623-2.324-4.39-2.376-2-.156-3.675 1.09-4.61 1.09zM15.53 3.83c.843-1.012 1.4-2.427 1.245-3.83-1.207.052-2.662.805-3.532 1.818-.78.896-1.454 2.338-1.273 3.714 1.338.104 2.715-.688 3.559-1.701" fill="#e2e8f0"/></g>
    <text x="18" y="58" fill="#e2e8f0" font-size="9" text-anchor="middle" letter-spacing="1">APPLE</text>
  </g>

  <!-- === SWIFT LOGO (top center-left) === -->
  <g class="fb" transform="translate(160,58)">
    <rect x="0" y="0" width="44" height="44" rx="10" fill="#FA7343" opacity=".85"/>
    <g transform="translate(4,4) scale(1.45)"><path d="M7.508 0c-.287 0-.573 0-.86.002-.241.002-.483.003-.724.01-.132.003-.263.009-.395.015A9.154 9.154 0 0 0 4.348.15 5.492 5.492 0 0 0 2.85.645 5.04 5.04 0 0 0 .645 2.848c-.245.48-.4.972-.495 1.5-.093.52-.122 1.05-.136 1.576a35.2 35.2 0 0 0-.012.724C0 6.935 0 7.221 0 7.508v8.984c0 .287 0 .575.002.862.002.24.005.481.012.722.014.526.043 1.057.136 1.576.095.528.25 1.02.495 1.5a5.03 5.03 0 0 0 2.205 2.203c.48.244.97.4 1.498.495.52.093 1.05.124 1.576.138.241.007.483.009.724.01.287.002.573.002.86.002h8.984c.287 0 .573 0 .86-.002.241-.001.483-.003.724-.01a10.523 10.523 0 0 0 1.578-.138 5.322 5.322 0 0 0 1.498-.495 5.035 5.035 0 0 0 2.203-2.203c.245-.48.4-.972.495-1.5.093-.52.124-1.05.138-1.576.007-.241.009-.481.01-.722.002-.287.002-.575.002-.862V7.508c0-.287 0-.573-.002-.86a33.662 33.662 0 0 0-.01-.724 10.5 10.5 0 0 0-.138-1.576 5.328 5.328 0 0 0-.495-1.5A5.039 5.039 0 0 0 21.152.645 5.32 5.32 0 0 0 19.654.15a10.493 10.493 0 0 0-1.578-.138 34.98 34.98 0 0 0-.722-.01C17.067 0 16.779 0 16.492 0H7.508zm6.035 3.41c4.114 2.47 6.545 7.162 5.549 11.131-.024.093-.05.181-.076.272l.002.001c2.062 2.538 1.5 5.258 1.236 4.745-1.072-2.086-3.066-1.568-4.088-1.043a6.803 6.803 0 0 1-.281.158l-.02.012-.002.002c-2.115 1.123-4.957 1.205-7.812-.022a12.568 12.568 0 0 1-5.64-4.838c.649.48 1.35.902 2.097 1.252 3.019 1.414 6.051 1.311 8.197-.002C9.651 12.73 7.101 9.67 5.146 7.191a10.628 10.628 0 0 1-1.005-1.384c2.34 2.142 6.038 4.83 7.365 5.576C8.69 8.408 6.208 4.743 6.324 4.86c4.436 4.47 8.528 6.996 8.528 6.996.154.085.27.154.36.213.085-.215.16-.437.224-.668.708-2.588-.09-5.548-1.893-7.992z" fill="white"/></g>
    <text x="22" y="56" fill="#FA7343" font-size="9" text-anchor="middle" letter-spacing="1">SWIFT</text>
  </g>

  <!-- === XCODE LOGO (top center) === -->
  <g class="fc" transform="translate(780,62)">
    <rect x="0" y="0" width="44" height="44" rx="10" fill="#147EFB" opacity=".8"/>
    <!-- Hammer -->
    <rect x="19" y="8" width="6" height="20" rx="3" fill="white" opacity=".95"/>
    <rect x="10" y="8" width="24" height="8" rx="3" fill="white" opacity=".95"/>
    <!-- Pencil -->
    <rect x="28" y="24" width="6" height="14" rx="2" fill="#ffd700" opacity=".95"/>
    <polygon points="28,38 34,38 31,44" fill="#ffd700" opacity=".95"/>
    <text x="22" y="58" fill="#147EFB" font-size="9" text-anchor="middle" letter-spacing="1">XCODE</text>
  </g>

  <!-- === FLUTTER LOGO (right side, mid-top) === -->
  <g class="fd" transform="translate(840,130)">
    <g transform="translate(2,6) scale(1.8)"><path d="M14.314 0L2.3 12 6 15.7 21.684.013h-7.357zm.014 11.072L7.857 17.53l6.47 6.47H21.7l-6.46-6.468 6.46-6.46h-7.37z" fill="#54C5F8"/></g>
    <text x="24" y="60" fill="#54C5F8" font-size="9" text-anchor="middle" letter-spacing="1">FLUTTER</text>
  </g>

  <!-- === ANDROID LOGO (right, mid) === -->
  <g class="fe" transform="translate(848,238)">
    <g transform="translate(2,12) scale(1.6)"><path d="M18.4395 5.5586c-.675 1.1664-1.352 2.3318-2.0274 3.498-.0366-.0155-.0742-.0286-.1113-.043-1.8249-.6957-3.484-.8-4.42-.787-1.8551.0185-3.3544.4643-4.2597.8203-.084-.1494-1.7526-3.021-2.0215-3.4864a1.1451 1.1451 0 0 0-.1406-.1914c-.3312-.364-.9054-.4859-1.379-.203-.475.282-.7136.9361-.3886 1.5019 1.9466 3.3696-.0966-.2158 1.9473 3.3593.0172.031-.4946.2642-1.3926 1.0177C2.8987 12.176.452 14.772 0 18.9902h24c-.119-1.1108-.3686-2.099-.7461-3.0683-.7438-1.9118-1.8435-3.2928-2.7402-4.1836a12.1048 12.1048 0 0 0-2.1309-1.6875c.6594-1.122 1.312-2.2559 1.9649-3.3848.2077-.3615.1886-.7956-.0079-1.1191a1.1001 1.1001 0 0 0-.8515-.5332c-.5225-.0536-.9392.3128-1.0488.5449zm-.0391 8.461c.3944.5926.324 1.3306-.1563 1.6503-.4799.3197-1.188.0985-1.582-.4941-.3944-.5927-.324-1.3307.1563-1.6504.4727-.315 1.1812-.1086 1.582.4941zM7.207 13.5273c.4803.3197.5506 1.0577.1563 1.6504-.394.5926-1.1038.8138-1.584.4941-.48-.3197-.5503-1.0577-.1563-1.6504.4008-.6021 1.1087-.8106 1.584-.4941z" fill="#3DDC84"/></g>
    <text x="21" y="72" fill="#3DDC84" font-size="9" text-anchor="middle" letter-spacing="1">ANDROID</text>
  </g>

  <!-- === WINDOWS LOGO (bottom right) === -->
  <g class="fa" transform="translate(838,390)">
    <rect x="0"  y="0"  width="18" height="18" rx="2" fill="#F35325"/>
    <rect x="21" y="0"  width="18" height="18" rx="2" fill="#81BC06"/>
    <rect x="0"  y="21" width="18" height="18" rx="2" fill="#05A6F0"/>
    <rect x="21" y="21" width="18" height="18" rx="2" fill="#FFBA08"/>
    <text x="19" y="55" fill="#e2e8f0" font-size="9" text-anchor="middle" letter-spacing="1">WINDOWS</text>
  </g>

  <!-- === LINUX / TUX (bottom center-right) === -->
  <g class="fc" transform="translate(730,380)">
    <g transform="translate(-5,12) scale(2)"><path d="M12.504 0c-.155 0-.315.008-.48.021-4.226.333-3.105 4.807-3.17 6.298-.076 1.092-.3 1.953-1.05 3.02-.885 1.051-2.127 2.75-2.716 4.521-.278.832-.41 1.684-.287 2.489a.424.424 0 00-.11.135c-.26.268-.45.6-.663.839-.199.199-.485.267-.797.4-.313.136-.658.269-.864.68-.09.189-.136.394-.132.602 0 .199.027.4.055.536.058.399.116.728.04.97-.249.68-.28 1.145-.106 1.484.174.334.535.47.94.601.81.2 1.91.135 2.774.6.926.466 1.866.67 2.616.47.526-.116.97-.464 1.208-.946.587-.003 1.23-.269 2.26-.334.699-.058 1.574.267 2.577.2.025.134.063.198.114.333l.003.003c.391.778 1.113 1.132 1.884 1.071.771-.06 1.592-.536 2.257-1.306.631-.765 1.683-1.084 2.378-1.503.348-.199.629-.469.649-.853.023-.4-.2-.811-.714-1.376v-.097l-.003-.003c-.17-.2-.25-.535-.338-.926-.085-.401-.182-.786-.492-1.046h-.003c-.059-.054-.123-.067-.188-.135a.357.357 0 00-.19-.064c.431-1.278.264-2.55-.173-3.694-.533-1.41-1.465-2.638-2.175-3.483-.796-1.005-1.576-1.957-1.56-3.368.026-2.152.236-6.133-3.544-6.139zm.529 3.405h.013c.213 0 .396.062.584.198.19.135.33.332.438.533.105.259.158.459.166.724 0-.02.006-.04.006-.06v.105a.086.086 0 01-.004-.021l-.004-.024a1.807 1.807 0 01-.15.706.953.953 0 01-.213.335.71.71 0 00-.088-.042c-.104-.045-.198-.064-.284-.133a1.312 1.312 0 00-.22-.066c.05-.06.146-.133.183-.198.053-.128.082-.264.088-.402v-.02a1.21 1.21 0 00-.061-.4c-.045-.134-.101-.2-.183-.333-.084-.066-.167-.132-.267-.132h-.016c-.093 0-.176.03-.262.132a.8.8 0 00-.205.334 1.18 1.18 0 00-.09.4v.019c.002.089.008.179.02.267-.193-.067-.438-.135-.607-.202a1.635 1.635 0 01-.018-.2v-.02a1.772 1.772 0 01.15-.768c.082-.22.232-.406.43-.533a.985.985 0 01.594-.2zm-2.962.059h.036c.142 0 .27.048.399.135.146.129.264.288.344.465.09.199.14.4.153.667v.004c.007.134.006.2-.002.266v.08c-.03.007-.056.018-.083.024-.152.055-.274.135-.393.2.012-.09.013-.18.003-.267v-.015c-.012-.133-.04-.2-.082-.333a.613.613 0 00-.166-.267.248.248 0 00-.183-.064h-.021c-.071.006-.13.04-.186.132a.552.552 0 00-.12.27.944.944 0 00-.023.33v.015c.012.135.037.2.08.334.046.134.098.2.166.268.01.009.02.018.034.024-.07.057-.117.07-.176.136a.304.304 0 01-.131.068 2.62 2.62 0 01-.275-.402 1.772 1.772 0 01-.155-.667 1.759 1.759 0 01.08-.668 1.43 1.43 0 01.283-.535c.128-.133.26-.2.418-.2zm1.37 1.706c.332 0 .733.065 1.216.399.293.2.523.269 1.052.468h.003c.255.136.405.266.478.399v-.131a.571.571 0 01.016.47c-.123.31-.516.643-1.063.842v.002c-.268.135-.501.333-.775.465-.276.135-.588.292-1.012.267a1.139 1.139 0 01-.448-.067 3.566 3.566 0 01-.322-.198c-.195-.135-.363-.332-.612-.465v-.005h-.005c-.4-.246-.616-.512-.686-.71-.07-.268-.005-.47.193-.6.224-.135.38-.271.483-.336.104-.074.143-.102.176-.131h.002v-.003c.169-.202.436-.47.839-.601.139-.036.294-.065.466-.065zm2.8 2.142c.358 1.417 1.196 3.475 1.735 4.473.286.534.855 1.659 1.102 3.024.156-.005.33.018.513.064.646-1.671-.546-3.467-1.089-3.966-.22-.2-.232-.335-.123-.335.59.534 1.365 1.572 1.646 2.757.13.535.16 1.104.021 1.67.067.028.135.06.205.067 1.032.534 1.413.938 1.23 1.537v-.043c-.06-.003-.12 0-.18 0h-.016c.151-.467-.182-.825-1.065-1.224-.915-.4-1.646-.336-1.77.465-.008.043-.013.066-.018.135-.068.023-.139.053-.209.064-.43.268-.662.669-.793 1.187-.13.533-.17 1.156-.205 1.869v.003c-.02.334-.17.838-.319 1.35-1.5 1.072-3.58 1.538-5.348.334a2.645 2.645 0 00-.402-.533 1.45 1.45 0 00-.275-.333c.182 0 .338-.03.465-.067a.615.615 0 00.314-.334c.108-.267 0-.697-.345-1.163-.345-.467-.931-.995-1.788-1.521-.63-.4-.986-.87-1.15-1.396-.165-.534-.143-1.085-.015-1.645.245-1.07.873-2.11 1.274-2.763.107-.065.037.135-.408.974-.396.751-1.14 2.497-.122 3.854a8.123 8.123 0 01.647-2.876c.564-1.278 1.743-3.504 1.836-5.268.048.036.217.135.289.202.218.133.38.333.59.465.21.201.477.335.876.335.039.003.075.006.11.006.412 0 .73-.134.997-.268.29-.134.52-.334.74-.4h.005c.467-.135.835-.402 1.044-.7zm2.185 8.958c.037.6.343 1.245.882 1.377.588.134 1.434-.333 1.791-.765l.211-.01c.315-.007.577.01.847.268l.003.003c.208.199.305.53.391.876.085.4.154.78.409 1.066.486.527.645.906.636 1.14l.003-.007v.018l-.003-.012c-.015.262-.185.396-.498.595-.63.401-1.746.712-2.457 1.57-.618.737-1.37 1.14-2.036 1.191-.664.053-1.237-.2-1.574-.898l-.005-.003c-.21-.4-.12-1.025.056-1.69.176-.668.428-1.344.463-1.897.037-.714.076-1.335.195-1.814.12-.465.308-.797.641-.984l.045-.022zm-10.814.049h.01c.053 0 .105.005.157.014.376.055.706.333 1.023.752l.91 1.664.003.003c.243.533.754 1.064 1.189 1.637.434.598.77 1.131.729 1.57v.006c-.057.744-.48 1.148-1.125 1.294-.645.135-1.52.002-2.395-.464-.968-.536-2.118-.469-2.857-.602-.369-.066-.61-.2-.723-.4-.11-.2-.113-.602.123-1.23v-.004l.002-.003c.117-.334.03-.752-.027-1.118-.055-.401-.083-.71.043-.94.16-.334.396-.4.69-.533.294-.135.64-.202.915-.47h.002v-.002c.256-.268.445-.601.668-.838.19-.201.38-.336.663-.336zm7.159-9.074c-.435.201-.945.535-1.488.535-.542 0-.97-.267-1.28-.466-.154-.134-.28-.268-.373-.335-.164-.134-.144-.333-.074-.333.109.016.129.134.199.2.096.066.215.2.36.333.292.2.68.467 1.167.467.485 0 1.053-.267 1.398-.466.195-.135.445-.334.648-.467.156-.136.149-.267.279-.267.128.016.034.134-.147.332a8.097 8.097 0 01-.69.468zm-1.082-1.583V5.64c-.006-.02.013-.042.029-.05.074-.043.18-.027.26.004.063 0 .16.067.15.135-.006.049-.085.066-.135.066-.055 0-.092-.043-.141-.068-.052-.018-.146-.008-.163-.065zm-.551 0c-.02.058-.113.049-.166.066-.047.025-.086.068-.14.068-.05 0-.13-.02-.136-.068-.01-.066.088-.133.15-.133.08-.031.184-.047.259-.005.019.009.036.03.03.05v.02h.003z" fill="#F5C518"/></g>
    <text x="20" y="82" fill="#F5C518" font-size="9" text-anchor="middle" letter-spacing="1">LINUX</text>
  </g>

  <!-- === GIT LOGO (bottom left) === -->
  <g class="fb" transform="translate(42,370)">
    <!-- Git diamond -->
    <rect x="0" y="0" width="42" height="42" rx="6" fill="#F05032" opacity=".85"/>
    <g transform="translate(2,2) scale(1.6)"><path d="M13.09 23.549a1.54 1.54 0 0 1-2.18 0L.451 13.089a1.54 1.54 0 0 1 0-2.179l7.191-7.19 2.733 2.733a1.85 1.85 0 0 0 .964 2.326v6.66a1.849 1.849 0 1 0 1.54 0V8.957l2.508 2.508a1.85 1.85 0 1 0 1.09-1.09l-2.634-2.634a1.85 1.85 0 0 0-2.378-2.377L8.73 2.63 10.91.451a1.54 1.54 0 0 1 2.179 0l10.459 10.46a1.54 1.54 0 0 1 0 2.179z" fill="white"/></g>
    <text x="21" y="56" fill="#F05032" font-size="9" text-anchor="middle" letter-spacing="1">GIT</text>
  </g>

  <!-- === GITHUB LOGO (left, mid) === -->
  <g class="fd" transform="translate(22,240)">
    <!-- Circle background -->
    <circle cx="24" cy="24" r="24" fill="#1a1a2e" stroke="#e2e8f0" stroke-width="2" opacity=".9"/>
    <!-- Octocat simplified -->
    <g transform="translate(6,6) scale(1.5)"><path d="M12 .297c-6.63 0-12 5.373-12 12 0 5.303 3.438 9.8 8.205 11.385.6.113.82-.258.82-.577 0-.285-.01-1.04-.015-2.04-3.338.724-4.042-1.61-4.042-1.61C4.422 18.07 3.633 17.7 3.633 17.7c-1.087-.744.084-.729.084-.729 1.205.084 1.838 1.236 1.838 1.236 1.07 1.835 2.809 1.305 3.495.998.108-.776.417-1.305.76-1.605-2.665-.3-5.466-1.332-5.466-5.93 0-1.31.465-2.38 1.235-3.22-.135-.303-.54-1.523.105-3.176 0 0 1.005-.322 3.3 1.23.96-.267 1.98-.399 3-.405 1.02.006 2.04.138 3 .405 2.28-1.552 3.285-1.23 3.285-1.23.645 1.653.24 2.873.12 3.176.765.84 1.23 1.91 1.23 3.22 0 4.61-2.805 5.625-5.475 5.92.42.36.81 1.096.81 2.22 0 1.606-.015 2.896-.015 3.286 0 .315.21.69.825.57C20.565 22.092 24 17.592 24 12.297c0-6.627-5.373-12-12-12" fill="#e2e8f0"/></g>
    <text x="24" y="62" fill="#e2e8f0" font-size="9" text-anchor="middle" letter-spacing="1">GITHUB</text>
  </g>

  <!-- === VS CODE LOGO (top right area) === -->
  <g class="fe" transform="translate(838,58)">
    <rect x="0" y="0" width="44" height="44" rx="8" fill="#007ACC" opacity=".85"/>
    <!-- VS Code icon: two angular bracket shapes -->
    <polyline points="28,10 16,22 28,34" fill="none" stroke="white" stroke-width="4" stroke-linecap="round" stroke-linejoin="round"/>
    <line x1="32" y1="10" x2="32" y2="34" stroke="white" stroke-width="4" stroke-linecap="round" opacity=".7"/>
    <text x="22" y="58" fill="#007ACC" font-size="9" text-anchor="middle" letter-spacing="1">VS CODE</text>
  </g>

  <!-- === PHP LOGO (top-right background) === -->
  <g class="fa" transform="translate(650,56)">
    <ellipse cx="44" cy="20" rx="44" ry="20" fill="#777BB4" opacity=".8"/>
    <text x="44" y="25" fill="white" font-size="16" font-weight="bold" text-anchor="middle" letter-spacing="2">php</text>
    <text x="44" y="50" fill="#777BB4" font-size="9" text-anchor="middle" letter-spacing="1">PHP</text>
  </g>

  <!-- === LARAVEL LOGO (bottom center) === -->
  <g class="fc" transform="translate(440,388)">
    <rect x="0" y="0" width="44" height="44" rx="8" fill="#FF2D20" opacity=".85"/>
    <!-- L shape -->
    <text x="22" y="35" fill="white" font-size="28" font-weight="bold" text-anchor="middle" font-style="italic">L</text>
    <text x="22" y="58" fill="#FF2D20" font-size="9" text-anchor="middle" letter-spacing="1">LARAVEL</text>
  </g>

  <!-- === MYSQL LOGO (bottom-left area) === -->
  <g class="fb" transform="translate(140,388)">
    <g transform="translate(0,6) scale(1.8)"><path d="M16.405 5.501c-.115 0-.193.014-.274.033v.013h.014c.054.104.146.18.214.273.054.107.1.214.154.32l.014-.015c.094-.066.14-.172.14-.333-.04-.047-.046-.094-.08-.14-.04-.067-.126-.1-.18-.153zM5.77 18.695h-.927a50.854 50.854 0 00-.27-4.41h-.008l-1.41 4.41H2.45l-1.4-4.41h-.01a72.892 72.892 0 00-.195 4.41H0c.055-1.966.192-3.81.41-5.53h1.15l1.335 4.064h.008l1.347-4.064h1.095c.242 2.015.384 3.86.428 5.53zm4.017-4.08c-.378 2.045-.876 3.533-1.492 4.46-.482.716-1.01 1.073-1.583 1.073-.153 0-.34-.046-.566-.138v-.494c.11.017.24.026.386.026.268 0 .483-.075.647-.222.197-.18.295-.382.295-.605 0-.155-.077-.47-.23-.944L6.23 14.615h.91l.727 2.36c.164.536.233.91.205 1.123.4-1.064.678-2.227.835-3.483zm12.325 4.08h-2.63v-5.53h.885v4.85h1.745zm-3.32.135l-1.016-.5c.09-.076.177-.158.255-.25.433-.506.648-1.258.648-2.253 0-1.83-.718-2.746-2.155-2.746-.704 0-1.254.232-1.65.697-.43.508-.646 1.256-.646 2.245 0 .972.19 1.686.574 2.14.35.41.877.615 1.583.615.264 0 .506-.033.725-.098l1.325.772.36-.622zM15.5 17.588c-.225-.36-.337-.94-.337-1.736 0-1.393.424-2.09 1.27-2.09.443 0 .77.167.977.5.224.362.336.936.336 1.723 0 1.404-.424 2.108-1.27 2.108-.445 0-.77-.167-.978-.5zm-1.658-.425c0 .47-.172.856-.516 1.156-.344.3-.803.45-1.384.45-.543 0-1.064-.172-1.573-.515l.237-.476c.438.22.833.328 1.19.328.332 0 .593-.073.783-.22a.754.754 0 00.3-.615c0-.33-.23-.61-.648-.845-.388-.213-1.163-.657-1.163-.657-.422-.307-.632-.636-.632-1.177 0-.45.157-.81.47-1.085.315-.278.72-.415 1.22-.415.512 0 .98.136 1.4.41l-.213.476a2.726 2.726 0 00-1.064-.23c-.283 0-.502.068-.654.206a.685.685 0 00-.248.524c0 .328.234.61.666.85.393.215 1.187.67 1.187.67.433.305.648.63.648 1.168zm9.382-5.852c-.535-.014-.95.04-1.297.188-.1.04-.26.04-.274.167.055.053.063.14.11.214.08.134.218.313.346.407.14.11.28.216.427.31.26.16.555.255.81.416.145.094.293.213.44.313.073.05.12.14.214.172v-.02c-.046-.06-.06-.147-.105-.214-.067-.067-.134-.127-.2-.193a3.223 3.223 0 00-.695-.675c-.214-.146-.682-.35-.77-.595l-.013-.014c.146-.013.32-.066.46-.106.227-.06.435-.047.67-.106.106-.027.213-.06.32-.094v-.06c-.12-.12-.21-.283-.334-.395a8.867 8.867 0 00-1.104-.823c-.21-.134-.476-.22-.697-.334-.08-.04-.214-.06-.26-.127-.12-.146-.19-.34-.275-.514a17.69 17.69 0 01-.547-1.163c-.12-.262-.193-.523-.34-.763-.69-1.137-1.437-1.826-2.586-2.5-.247-.14-.543-.2-.856-.274-.167-.008-.334-.02-.5-.027-.11-.047-.216-.174-.31-.235-.38-.24-1.364-.76-1.644-.072-.18.434.267.862.422 1.082.115.153.26.328.34.5.047.116.06.235.107.356.106.294.207.622.347.897.073.14.153.287.247.413.054.073.146.107.167.227-.094.136-.1.334-.154.5-.24.757-.146 1.693.194 2.25.107.166.362.534.703.393.3-.12.234-.5.32-.835.02-.08.007-.133.048-.187v.015c.094.188.188.367.274.555.206.328.566.668.867.895.16.12.287.328.487.402v-.02h-.015c-.043-.058-.1-.086-.154-.133a3.445 3.445 0 01-.35-.4 8.76 8.76 0 01-.747-1.218c-.11-.21-.202-.436-.29-.643-.04-.08-.04-.2-.107-.24-.1.146-.247.273-.32.453-.127.288-.14.642-.188 1.01-.027.007-.014 0-.027.014-.214-.052-.287-.274-.367-.46-.2-.475-.233-1.238-.06-1.785.047-.14.247-.582.167-.716-.042-.127-.174-.2-.247-.303a2.478 2.478 0 01-.24-.427c-.16-.374-.24-.788-.414-1.162-.08-.173-.22-.354-.334-.513-.127-.18-.267-.307-.368-.52-.033-.073-.08-.194-.027-.274.014-.054.042-.075.094-.09.088-.072.335.022.422.062.247.1.455.194.662.334.094.066.195.193.315.226h.14c.214.047.455.014.655.073.355.114.675.28.962.46a5.953 5.953 0 012.085 2.286c.08.154.115.295.188.455.14.33.313.663.455.982.14.315.275.636.476.897.1.14.502.213.682.286.133.06.34.115.46.188.23.14.454.3.67.454.11.076.443.243.463.378z" fill="#00618A"/></g>
    <text x="22" y="60" fill="#00618A" font-size="9" text-anchor="middle" letter-spacing="1">MYSQL</text>
  </g>

  <!-- === JAVASCRIPT LOGO (top left area, far) === -->
  <g class="fd" transform="translate(250,370)">
    <rect x="0" y="0" width="44" height="44" rx="4" fill="#F7DF1E" opacity=".85"/>
    <g transform="translate(2,2) scale(1.6)"><path d="M0 0h24v24H0V0zm22.034 18.276c-.175-1.095-.888-2.015-3.003-2.873-.736-.345-1.554-.585-1.797-1.14-.091-.33-.105-.51-.046-.705.15-.646.915-.84 1.515-.66.39.12.75.42.976.9 1.034-.676 1.034-.676 1.755-1.125-.27-.42-.404-.601-.586-.78-.63-.705-1.469-1.065-2.834-1.034l-.705.089c-.676.165-1.32.525-1.71 1.005-1.14 1.291-.811 3.541.569 4.471 1.365 1.02 3.361 1.244 3.616 2.205.24 1.17-.87 1.545-1.966 1.41-.811-.18-1.26-.586-1.755-1.336l-1.83 1.051c.21.48.45.689.81 1.109 1.74 1.756 6.09 1.666 6.871-1.004.029-.09.24-.705.074-1.65l.046.067zm-8.983-7.245h-2.248c0 1.938-.009 3.864-.009 5.805 0 1.232.063 2.363-.138 2.711-.33.689-1.18.601-1.566.48-.396-.196-.597-.466-.83-.855-.063-.105-.11-.196-.127-.196l-1.825 1.125c.305.63.75 1.172 1.324 1.517.855.51 2.004.675 3.207.405.783-.226 1.458-.691 1.811-1.411.51-.93.402-2.07.397-3.346.012-2.054 0-4.109 0-6.179l.004-.056z" fill="#1a1a2e"/></g>
    <text x="22" y="58" fill="#F7DF1E" font-size="9" text-anchor="middle" letter-spacing="1">JAVASCRIPT</text>
  </g>

  <!-- === DART LOGO (mid-right area) === -->
  <g class="fa" transform="translate(844,322)">
    <rect x="0" y="0" width="44" height="44" rx="8" fill="#0175C2" opacity=".85"/>
    <g transform="translate(3,3) scale(1.6)"><path d="M4.105 4.105S9.158 1.58 11.684.316a3.079 3.079 0 0 1 1.481-.315c.766.047 1.677.788 1.677.788L24 9.948v9.789h-4.263V24H9.789l-9-9C.303 14.5 0 13.795 0 13.105c0-.319.18-.818.316-1.105l3.789-7.895zm.679.679v11.787c.002.543.021 1.024.498 1.508L10.204 23h8.533v-4.263L4.784 4.784zm12.055-.678c-.899-.896-1.809-1.78-2.74-2.643-.302-.267-.567-.468-1.07-.462-.37.014-.87.195-.87.195L6.341 4.105l10.498.001z" fill="white"/></g>
    <text x="22" y="58" fill="#0175C2" font-size="9" text-anchor="middle" letter-spacing="1">DART</text>
  </g>

  <!-- === macOS LOGO (far top right) === -->
  <g class="fe" transform="translate(554,56)">
    <!-- macOS abstract colourful circle -->
    <path d="M24,0 A24,24 0 0,1 48,24" fill="#34C759"/>
    <path d="M48,24 A24,24 0 0,1 24,48" fill="#007AFF"/>
    <path d="M24,48 A24,24 0 0,1 0,24" fill="#FF3B30"/>
    <path d="M0,24 A24,24 0 0,1 24,0" fill="#FF9500"/>
    <circle cx="24" cy="24" r="10" fill="#050810"/>
    <text x="24" y="62" fill="#e2e8f0" font-size="9" text-anchor="middle" letter-spacing="1">MACOS</text>
  </g>

  <!-- === ANDROID STUDIO (left, lower) === -->
  <g class="fb" transform="translate(28,330)">
    <circle cx="22" cy="22" r="22" fill="#3DDC84" opacity=".8"/>
    <!-- Inner ring -->
    <circle cx="22" cy="22" r="13" fill="none" stroke="#1a1a2e" stroke-width="5"/>
    <!-- Android head simplified white -->
    <ellipse cx="22" cy="18" rx="10" ry="9" fill="white" opacity=".9"/>
    <circle cx="17" cy="16" r="2" fill="#3DDC84"/>
    <circle cx="27" cy="16" r="2" fill="#3DDC84"/>
    <line x1="13" y1="10" x2="9"  y2="5" stroke="white" stroke-width="2" stroke-linecap="round" opacity=".9"/>
    <line x1="31" y1="10" x2="35" y2="5" stroke="white" stroke-width="2" stroke-linecap="round" opacity=".9"/>
    <text x="22" y="58" fill="#3DDC84" font-size="8" text-anchor="middle" letter-spacing="1">ANDROID STUDIO</text>
  </g>

  <!-- Subtle thin grid lines -->
  <g opacity=".025" stroke="#00ffff" stroke-width=".5">
    <line x1="0" y1="60"  x2="900" y2="60"/>  <line x1="0" y1="120" x2="900" y2="120"/>
    <line x1="0" y1="180" x2="900" y2="180"/> <line x1="0" y1="240" x2="900" y2="240"/>
    <line x1="0" y1="300" x2="900" y2="300"/> <line x1="0" y1="360" x2="900" y2="360"/>
    <line x1="0" y1="420" x2="900" y2="420"/>
    <line x1="60"  y1="0" x2="60"  y2="480"/> <line x1="120" y1="0" x2="120" y2="480"/>
    <line x1="180" y1="0" x2="180" y2="480"/> <line x1="240" y1="0" x2="240" y2="480"/>
    <line x1="300" y1="0" x2="300" y2="480"/> <line x1="360" y1="0" x2="360" y2="480"/>
    <line x1="420" y1="0" x2="420" y2="480"/> <line x1="480" y1="0" x2="480" y2="480"/>
    <line x1="540" y1="0" x2="540" y2="480"/> <line x1="600" y1="0" x2="600" y2="480"/>
    <line x1="660" y1="0" x2="660" y2="480"/> <line x1="720" y1="0" x2="720" y2="480"/>
    <line x1="780" y1="0" x2="780" y2="480"/> <line x1="840" y1="0" x2="840" y2="480"/>
  </g>

  <!-- Scanline sweep -->
  <rect class="scan" x="0" y="60" width="900" height="2" fill="#00ffff"/>

  <!-- ════════════ OUTER BORDER ════════════ -->
  <rect class="border-outer" x="2" y="2" width="896" height="476" rx="12" fill="none" stroke="#00ffff" stroke-width="1.5"/>
  <rect x="6" y="6" width="888" height="468" rx="10" fill="none" stroke="#b700ff" stroke-width=".5" opacity=".3"/>

  <!-- Corner brackets -->
  <g class="corner" fill="none" stroke="#00ffff" stroke-width="2" filter="url(#glow)">
    <polyline points="2,32 2,2 32,2"/>
    <polyline points="868,2 898,2 898,32"/>
    <polyline points="2,448 2,478 32,478"/>
    <polyline points="868,478 898,478 898,448"/>
  </g>

  <!-- ════════════ HEADER BAR ════════════ -->
  <rect x="2" y="2" width="896" height="52" rx="12" fill="url(#hdr)"/>
  <rect x="2" y="40" width="896" height="14" fill="#050810" opacity=".95"/>
  <!-- Traffic lights -->
  <circle cx="30" cy="27" r="7" fill="#ff5f56"/>
  <circle cx="52" cy="27" r="7" fill="#ffbd2e"/>
  <circle cx="74" cy="27" r="7" fill="#27c93f"/>
  <!-- Title -->
  <text x="450" y="33" fill="#00ffff" font-size="14" font-weight="bold" text-anchor="middle" letter-spacing="5" filter="url(#glow)" class="flicker">◈  FAQIH55  ::  NEURAL INTERFACE  v2.0  ◈</text>
  <!-- Status -->
  <circle class="pulse" cx="858" cy="27" r="5" fill="#00ff88" filter="url(#glow-soft)"/>
  <text x="847" y="31" fill="#00ff88" font-size="11" text-anchor="end" letter-spacing="1">ONLINE</text>

  <!-- ════════════ LEFT PANEL ════════════ -->
  <rect x="20" y="66" width="310" height="170" rx="8" fill="#0d1424" stroke="#00ffff" stroke-width=".8" opacity=".95"/>
  <rect x="20" y="66" width="310" height="30"  rx="8" fill="#00ffff" opacity=".07"/>
  <text x="36" y="87" fill="#00ffff" font-size="11" letter-spacing="3" filter="url(#glow-soft)">&#9658; IDENTITY.SYS</text>
  <text x="36" y="122" fill="#ffffff" font-size="30" font-weight="bold" letter-spacing="2" filter="url(#glow-soft)">faqih55</text>
  <text x="36" y="145" fill="#b700ff" font-size="12" letter-spacing="1" filter="url(#glow-soft)">@lil.fqh  ·  Indonesia</text>
  <line x1="36" y1="155" x2="314" y2="155" stroke="#1e2d4a" stroke-width="1"/>
  <text x="36" y="174" fill="#4a5568" font-size="11">ROLE    &#8250;</text>
  <text x="106" y="174" fill="#e2e8f0" font-size="11">iOS + Fullstack Developer</text>
  <text x="36" y="194" fill="#4a5568" font-size="11">MOTTO   &#8250;</text>
  <text x="106" y="194" fill="#e2e8f0" font-size="11">Humble code, big impact.</text>
  <text x="36" y="214" fill="#4a5568" font-size="11">FOCUS   &#8250;</text>
  <text x="106" y="214" fill="#00ff88" font-size="11">Building · Learning · Shipping</text>

  <!-- Specializations -->
  <rect x="20" y="248" width="310" height="110" rx="8" fill="#0d1424" stroke="#b700ff" stroke-width=".8" opacity=".95"/>
  <rect x="20" y="248" width="310" height="30"  rx="8" fill="#b700ff" opacity=".07"/>
  <text x="36" y="269" fill="#b700ff" font-size="11" letter-spacing="3" filter="url(#glow-soft)">&#9658; SPECIALIZATIONS</text>
  <rect x="36"  y="284" width="100" height="22" rx="11" fill="none" stroke="#00ffff" stroke-width="1"/>
  <text x="86"  y="299" fill="#00ffff" font-size="10" text-anchor="middle" letter-spacing="1">iOS / SwiftUI</text>
  <rect x="146" y="284" width="80"  height="22" rx="11" fill="none" stroke="#b700ff" stroke-width="1"/>
  <text x="186" y="299" fill="#b700ff" font-size="10" text-anchor="middle" letter-spacing="1">Laravel</text>
  <rect x="236" y="284" width="78"  height="22" rx="11" fill="none" stroke="#ff0080" stroke-width="1"/>
  <text x="275" y="299" fill="#ff0080" font-size="10" text-anchor="middle" letter-spacing="1">Flutter</text>
  <rect x="36"  y="316" width="80"  height="22" rx="11" fill="none" stroke="#ffd700" stroke-width="1"/>
  <text x="76"  y="331" fill="#ffd700" font-size="10" text-anchor="middle" letter-spacing="1">JavaScript</text>
  <rect x="126" y="316" width="58"  height="22" rx="11" fill="none" stroke="#00ff88" stroke-width="1"/>
  <text x="155" y="331" fill="#00ff88" font-size="10" text-anchor="middle" letter-spacing="1">PHP</text>
  <rect x="194" y="316" width="58"  height="22" rx="11" fill="none" stroke="#4a9eff" stroke-width="1"/>
  <text x="223" y="331" fill="#4a9eff" font-size="10" text-anchor="middle" letter-spacing="1">MySQL</text>

  <!-- Connect -->
  <rect x="20" y="370" width="310" height="92" rx="8" fill="#0d1424" stroke="#ff0080" stroke-width=".8" opacity=".95"/>
  <rect x="20" y="370" width="310" height="30" rx="8" fill="#ff0080" opacity=".07"/>
  <text x="36" y="391" fill="#ff0080" font-size="11" letter-spacing="3" filter="url(#glow-soft)">&#9658; CONNECT.IO</text>
  <text x="36" y="414" fill="#4a5568" font-size="11">GH</text>
  <text x="58" y="414" fill="#1e2d4a" font-size="11">&#8250;</text>
  <text x="72" y="414" fill="#e2e8f0" font-size="11">github.com/faqih55</text>
  <text x="36" y="434" fill="#4a5568" font-size="11">IG</text>
  <text x="58" y="434" fill="#1e2d4a" font-size="11">&#8250;</text>
  <text x="72" y="434" fill="#e2e8f0" font-size="11">instagram.com/lil.fqh</text>
  <text x="36" y="454" fill="#4a5568" font-size="11">ML</text>
  <text x="58" y="454" fill="#1e2d4a" font-size="11">&#8250;</text>
  <text x="72" y="454" fill="#e2e8f0" font-size="11">faqihmuhamad553@gmail.com</text>

  <!-- Dividers -->
  <line x1="345" y1="66" x2="345" y2="474" stroke="#1e2d4a" stroke-width="1.5"/>
  <line x1="648" y1="66" x2="648" y2="474" stroke="#1e2d4a" stroke-width="1.5"/>

  <!-- ════════════ CENTER PANEL — TERMINAL ════════════ -->
  <rect x="355" y="66" width="280" height="398" rx="8" fill="#0d1424" stroke="#00ffff" stroke-width=".8" opacity=".95"/>
  <rect x="355" y="66" width="280" height="30"  rx="8" fill="#00ffff" opacity=".06"/>
  <text x="370" y="87" fill="#00ffff" font-size="11" letter-spacing="3" filter="url(#glow-soft)">&#9658; TERMINAL.SH</text>
  <g font-size="12">
    <g class="l0"><text x="370" y="120" fill="#b700ff">&#10095;</text><text x="384" y="120" fill="#e2e8f0">whoami</text></g>
    <g class="l1"><text x="382" y="138" fill="#00ff88">faqih55 — iOS &amp; Fullstack Dev</text></g>
    <g class="l2"><text x="370" y="162" fill="#b700ff">&#10095;</text><text x="384" y="162" fill="#e2e8f0">cat about.txt</text></g>
    <g class="l3">
      <text x="382" y="180" fill="#4a5568">————————————————</text>
      <text x="382" y="196" fill="#00ffff">Passionate dev crafting clean,</text>
      <text x="382" y="212" fill="#00ffff">scalable iOS &amp; web solutions.</text>
    </g>
    <g class="l4"><text x="370" y="236" fill="#b700ff">&#10095;</text><text x="384" y="236" fill="#e2e8f0">ls projects/</text></g>
    <g class="l5">
      <text x="382" y="254" fill="#ffd700">&#128193; XDREW/</text>
      <text x="382" y="270" fill="#ffd700">&#128193; Drew-Music/</text>
      <text x="382" y="286" fill="#4a5568">+ more in progress...</text>
    </g>
    <g class="l6"><text x="370" y="310" fill="#b700ff">&#10095;</text><text x="384" y="310" fill="#e2e8f0">echo $PHILOSOPHY</text></g>
    <g class="l7">
      <text x="382" y="328" fill="#ff0080">"I don't just write code —</text>
      <text x="382" y="344" fill="#ff0080"> I build experiences."</text>
    </g>
    <g class="l8">
      <text x="370" y="374" fill="#b700ff">&#10095;</text>
      <text x="384" y="374" fill="#4a5568">npm run dream</text>
      <rect class="cursor" x="384" y="382" width="9" height="14" fill="#00ffff"/>
    </g>
    <line x1="370" y1="434" x2="618" y2="434" stroke="#1e2d4a" stroke-width=".5"/>
    <text x="494" y="450" fill="#1e2d4a" font-size="10" text-anchor="middle" letter-spacing="2">[ SYSTEM READY ]</text>
    <text x="370" y="462" fill="#1e2d4a" font-size="9">PID:2025  MEM:&#8734;  CPU:100% PASSION</text>
  </g>

  <!-- ════════════ RIGHT PANEL — SKILL MATRIX ════════════ -->
  <rect x="658" y="66" width="224" height="398" rx="8" fill="#0d1424" stroke="#b700ff" stroke-width=".8" opacity=".95"/>
  <rect x="658" y="66" width="224" height="30"  rx="8" fill="#b700ff" opacity=".06"/>
  <text x="673" y="87" fill="#b700ff" font-size="11" letter-spacing="3" filter="url(#glow-soft)">&#9658; SKILL.MATRIX</text>

  <text x="673" y="215" fill="#4a5568" font-size="10" letter-spacing="1">Swift / SwiftUI</text>
  <text x="868" y="215" fill="#ff0080" font-size="10" text-anchor="end">92%</text>
  <rect x="673" y="222" width="202" height="10" rx="5" fill="#1e2d4a"/>
  <g clip-path="url(#c1)"><rect class="b1" x="673" y="222" width="186" height="10" rx="5" fill="url(#gSwift)" filter="url(#glow-soft)"/></g>

  <text x="673" y="252" fill="#4a5568" font-size="10" letter-spacing="1">PHP / Laravel</text>
  <text x="868" y="252" fill="#b700ff" font-size="10" text-anchor="end">88%</text>
  <rect x="673" y="260" width="202" height="10" rx="5" fill="#1e2d4a"/>
  <g clip-path="url(#c2)"><rect class="b2" x="673" y="260" width="178" height="10" rx="5" fill="url(#gPHP)" filter="url(#glow-soft)"/></g>

  <text x="673" y="290" fill="#4a5568" font-size="10" letter-spacing="1">Dart / Flutter</text>
  <text x="868" y="290" fill="#00ffff" font-size="10" text-anchor="end">82%</text>
  <rect x="673" y="298" width="202" height="10" rx="5" fill="#1e2d4a"/>
  <g clip-path="url(#c3)"><rect class="b3" x="673" y="298" width="166" height="10" rx="5" fill="url(#gFlutter)" filter="url(#glow-soft)"/></g>

  <text x="673" y="328" fill="#4a5568" font-size="10" letter-spacing="1">JavaScript</text>
  <text x="868" y="328" fill="#ffd700" font-size="10" text-anchor="end">78%</text>
  <rect x="673" y="336" width="202" height="10" rx="5" fill="#1e2d4a"/>
  <g clip-path="url(#c4)"><rect class="b4" x="673" y="336" width="158" height="10" rx="5" fill="url(#gJS)" filter="url(#glow-soft)"/></g>

  <line x1="673" y1="362" x2="868" y2="362" stroke="#1e2d4a" stroke-width=".8"/>
  <text x="673" y="378" fill="#4a5568" font-size="10" letter-spacing="2">TOOLS &amp; PLATFORMS</text>
  <text x="673" y="398" fill="#00ffff" font-size="11">Xcode</text>
  <text x="726" y="398" fill="#1e2d4a" font-size="11">·</text>
  <text x="736" y="398" fill="#00ffff" font-size="11">VS Code</text>
  <text x="800" y="398" fill="#1e2d4a" font-size="11">·</text>
  <text x="810" y="398" fill="#00ffff" font-size="11">Git</text>
  <text x="673" y="416" fill="#b700ff" font-size="11">Android Studio</text>
  <text x="788" y="416" fill="#1e2d4a" font-size="11">·</text>
  <text x="798" y="416" fill="#b700ff" font-size="11">MySQL</text>
  <line x1="673" y1="428" x2="868" y2="428" stroke="#1e2d4a" stroke-width=".8"/>
  <text x="673" y="444" fill="#4a5568" font-size="10" letter-spacing="2">SYSTEM METRICS</text>
  <text x="673" y="462" fill="#4a5568" font-size="10">COMMITS  &#8250;</text>
  <text x="752" y="462" fill="#00ff88" font-size="10">&#8734; (active)</text>
</svg>
